<svg xmlns="http://www.w3.org/2000/svg" viewBox="0 0 75.46 110.82">
	<defs>
		<style>
			.a1cac26b-a140-4cc5-8617-4717d771ca40 {
				fill: #fff;
			}

		</style>
	</defs>
	<g id="f0938962-29d5-4307-82b2-b9b353c28545" data-name="Layer 2">
		<g id="b839d353-924d-47ed-be4f-c66750734401" data-name="white logo">
			<path class="a1cac26b-a140-4cc5-8617-4717d771ca40" d="M37.73,0A37.77,37.77,0,0,0,0,37.72v73.1H75.46V37.72A37.77,37.77,0,0,0,37.73,0M27.37,106.78a1.51,1.51,0,0,1,.09-.18,2,2,0,0,0,.1-.21.51.51,0,0,1,.36-.28.23.23,0,0,1,.23.15.28.28,0,0,1,0,.18.51.51,0,0,1-.09.24,1,1,0,0,1-.28.32.34.34,0,0,1-.4,0,.16.16,0,0,1,0-.19M38.79,106a.29.29,0,0,1,.26-.1.8.8,0,0,1,.48.25l0,0a.62.62,0,0,1,.15.39.19.19,0,0,1-.11.16.24.24,0,0,1-.15,0,.26.26,0,0,1-.17,0,1.24,1.24,0,0,1-.45-.46.24.24,0,0,1,0-.25m34.86,3H42.3a.49.49,0,0,0,.17-.26c.08-.21,0-.37-.2-.61l0-.06a3.37,3.37,0,0,0-.55-.58,2.33,2.33,0,0,1-.45-.38c-.24-.36-.89-.88-1.11-1.27a2,2,0,0,1,0-1.69c.21-.68.44-1.46.63-2.14.06-.21.33-.66.27-.88s-.34.13-.52.28a20.31,20.31,0,0,1-2.7,2.12,4,4,0,0,0-.94.65c-.29.32-.24.71-.33,1.11a1.26,1.26,0,0,0,0,.28,1.42,1.42,0,0,0,.11.35,2.27,2.27,0,0,1,0,1.29,2.62,2.62,0,0,0,0,.79.14.14,0,0,0,0,.09,1.11,1.11,0,0,0,.41.91H29a1.26,1.26,0,0,0,.19-.48,4.37,4.37,0,0,0,.16-1.08l0-.44a3,3,0,0,0-.08-.9,1.08,1.08,0,0,0-.38-.54,1.16,1.16,0,0,0-1.44,0c-.39.33-.63.92-1.06,1.19s-.64.76-1.15,1a5.09,5.09,0,0,0-.54.22.91.91,0,0,0-.16.11l0,0c-.25.21-.65.65-.45.88a1.14,1.14,0,0,0,.11.11H1.82V37.72a35.92,35.92,0,0,1,71.83,0Z" />
			<path class="a1cac26b-a140-4cc5-8617-4717d771ca40" d="M22.93,50l.2-.27c.22-.31.44-.61.68-.91.6-.73,1.31-1.37,1.92-2.1a7.27,7.27,0,0,0,2.17-4.6c.38-2.7.46-3.16.83-3.37s0,.55,1.48,1.57c.85.6.81,1,.22.89s-.95-.5-1.24-.24a6.59,6.59,0,0,0-.24,3c.16.44.41,2.69.53,3.53,0,0,6.73-4.62,7.47-5.67a44.4,44.4,0,0,0,3.39-5.63c.28-.64.6-1.25.92-1.87.12-.24.21-.5.34-.74s.34-.64.52-1c0-.07-.06-.15-.1-.23a1.14,1.14,0,0,0-.83,0c-.25.09-.44.3-.72.27a2.07,2.07,0,0,1-.53-.18c-.17-.06-.74.78-.85.84a1.24,1.24,0,0,1-1-.08,2.1,2.1,0,0,1-1.15-1c0-.07,0-.16,0-.21a.25.25,0,0,1,.21-.06.63.63,0,0,0,.37-.14c.17-.15.1-.87.39-.84s.14.31.15.41a.41.41,0,0,0,.28.4.43.43,0,0,0,.5-.31c.07-.17.16-.35.22-.53s.15-.56.4-.56a.11.11,0,0,1,.11.06c.08.13-.12.23,0,.35s.61-.39.53-1.08a4.22,4.22,0,0,1,.31-1.27,3,3,0,0,0,.21-1.22c0-.39.34-.64.43-1s-.36-.71-.45-.77a.51.51,0,0,0-.17-.07c-.13,0-.65-.34-.71-.19a.38.38,0,0,1-.55.16.44.44,0,0,0-.51,0c-.08.07-.19,0-.21,0-.07.3.12.66.36,1.44.07.22.37.86.23,1.09a.38.38,0,0,1-.29.19A1.45,1.45,0,0,1,38.4,28c-.26-.11-.4,0-.68,0a1.44,1.44,0,0,1-.46-.08c-.13-.05-.22-.19-.37-.2s-.07-.07-.06-.1a.11.11,0,0,1,.08,0c.16-.05.18-.11.31-.09s.2.19.43.19a1.28,1.28,0,0,0,.31-.11h0a.43.43,0,0,0,.1-.35c0-.31,0-.65,0-1A.61.61,0,0,1,38,26c0-.09,0-.18,0-.27v-.07h0a2.32,2.32,0,0,1,.06-.74,1.4,1.4,0,0,1,.15-.33,1.63,1.63,0,0,1,1-.56,3.77,3.77,0,0,1,.58,0c.22,0,.63.19.83.05a.36.36,0,0,0,.17-.31c0-.13-.13-.22-.21-.32-.44-.57-.17-1.61-1-1.89-.57-.2-1.66-.35-1.89-.9-.1-.25-.14-.26-.2-.06-.24.69-.48.66-1.07.89s-1.79.65-1.81,1.82-.46,1.21-.25,1.95a8.39,8.39,0,0,1,.38,1.09A6.83,6.83,0,0,0,35,28.4c0,.16.17.47.25.73.35,1,.57,1.23.52,1.46a2.28,2.28,0,0,1-.27.66,4.6,4.6,0,0,1-.86,1h0c-.4.41-1.51.29-2,.89a4.28,4.28,0,0,1-1.1,1.06,1.57,1.57,0,0,1-.93.05A11.07,11.07,0,0,0,27,37.74a17.75,17.75,0,0,1-3.76,4.65,6.84,6.84,0,0,1-.62.42c-.74,1.45-1.37,2.83-1.95,3.2a5.57,5.57,0,0,0-1.87,1.72l-.31.39A14.35,14.35,0,0,1,16,50.46a7.05,7.05,0,0,1-1,.76c-.26.17-.33.26-.65.49A3.17,3.17,0,0,0,14,52a.91.91,0,0,1-.59.14,2.37,2.37,0,0,1-.5-.2,4.83,4.83,0,0,0-1.56-.45,7.89,7.89,0,0,0-1-.23c-.25,0-1-.28-1.12,0a.21.21,0,0,0,0,.22c.09.19.49.21.66.27a6.36,6.36,0,0,1,.71.31,2.31,2.31,0,0,1,.62.5,3.76,3.76,0,0,1,.25.31,1.7,1.7,0,0,0,1.09.68,2.8,2.8,0,0,0,.5,0l.57-.06c.41,0,0,.68-.38.94a1.92,1.92,0,0,1-1.54.16c-.8-.22-.71-.77-1-1.28a.45.45,0,0,0-.5-.31,3.17,3.17,0,0,0-1.11.15c-.26.1-.61.15-.87.26s-.34.12-.51.18a5.32,5.32,0,0,0-.78.32c-.25.12-.48.29-.72.41a3.5,3.5,0,0,0-.53.31c-.06,0-.16.14-.17.22s.31.09.4.06,2.53-1.11,2.54-.73a.18.18,0,0,1,0,.1l0,0c-.3.18-.61.34-.91.54s-.36.36-.59.54-.38.39-.55.53-.53.37-.63.64a.19.19,0,0,0,.06.22.46.46,0,0,0,.5-.06c.11-.09.25,0,.19.15s.22.38.41.38a.85.85,0,0,1,.36,0,.7.7,0,0,0,.1.08.41.41,0,0,0,.39,0,3.26,3.26,0,0,0,.34-.22,15.47,15.47,0,0,1,1.95-.68,1.73,1.73,0,0,1,.51,0c.23,0,.46,0,.69-.06a5.82,5.82,0,0,0,1.5-.26,3.75,3.75,0,0,0,1.12-.61,4.92,4.92,0,0,0,.77-.86,12.7,12.7,0,0,1,2.12-1.33,11.44,11.44,0,0,1,2.23-1A9.29,9.29,0,0,0,22.93,50M38.18,29.66a1.26,1.26,0,0,1-.27,0,.93.93,0,0,0-.29,0c-.12,0-.24.1-.36.08s-.3-.22-.14-.38.27,0,.5,0a1.18,1.18,0,0,1,.67,0c.22.09.1.31-.11.32m-1.24-1.14a.8.8,0,0,1,.37-.11c.13,0,.25.11.38.11h.14c.12,0,.24-.09.36-.09a.83.83,0,0,1,.38.1.49.49,0,0,0,.2.11.79.79,0,0,1,.25.05c.08,0,.15,0,.16.06s0,0,0,.06a.26.26,0,0,1-.09.09l-.37,0a1.76,1.76,0,0,1-.4,0c-.19,0-.39,0-.59,0h0c-.16,0-.31,0-.47,0a2.53,2.53,0,0,1-.78,0s-.06-.05-.08-.08,0,0,0-.06.08,0,.15-.06a.65.65,0,0,1,.25-.05.53.53,0,0,0,.21-.11m-1.43-3.28c-.1,0-.19-.07-.27-.13-.24-.2-.36.25-.33-.38,0-.27.05-.68,1-.66a1.55,1.55,0,0,1,1.41.9c0,.07.08.19,0,.26s-.13.12-.18.06,0-.05-.06-.06H37c-.23,0-.43-.09-.62.08a.39.39,0,0,1-.33.09.34.34,0,0,1-.26-.14s0,0,0,0-.18,0-.3,0m-4.1,18.1a2,2,0,0,1,.95.45c.2.22-.29.35-.64.23a3.17,3.17,0,0,1-.46-.19c-.18-.1-.45-.12-.58-.28a.41.41,0,0,1-.07-.11l-.14-.27s0-.1,0-.13.29,0,.36.07a4.24,4.24,0,0,0,.59.23M10.83,55.07a.6.6,0,0,1-.37.13H10l-.08,0a.43.43,0,0,0-.19,0l-.14,0,.06-.12a.86.86,0,0,1,.67-.51h0c.18,0,.5-.12.63.15a.37.37,0,0,1-.09.38" />
			<path class="a1cac26b-a140-4cc5-8617-4717d771ca40" d="M39.89,20.69c.54,0,.83.11,1,.54s.55.61.85,1l.07.09.08.13c.06.1.13.24.18.31a.25.25,0,0,0,.31.14c.09,0,.18-.29.17-.54a1.53,1.53,0,0,0-.09-.49c-.08-.23-.35-.62-.39-.75a9.6,9.6,0,0,0-.4-1.13,3.06,3.06,0,0,0-.7-1.19,5.16,5.16,0,0,0-.66-.56,2.17,2.17,0,0,0-1-.55,1.81,1.81,0,0,0-1-.14.47.47,0,0,0-.41.34A.64.64,0,0,0,38,18s0,0,0,.05A5.4,5.4,0,0,0,38,19.83a2,2,0,0,0,1.85.86" />
			<path class="a1cac26b-a140-4cc5-8617-4717d771ca40" d="M29.18,33c.42,0,.68-.4,1-.11s.24.37.55.43a.66.66,0,0,0,.72-.38.67.67,0,0,1,.18-.34c.41-.44.7.26,1.46-.9.6-.91-.2-1.05.49-2.35.54-1-.29-1.49.14-2.33s.08-1.61-.14-2.58a2.1,2.1,0,0,1,.56-1.91c.34-.49.2-1.47,1-1.71s1.69-.26,1.89-.58a7.42,7.42,0,0,0,.31-1.88h0a1.39,1.39,0,0,0,0-.38.39.39,0,0,0-.32-.33,1.6,1.6,0,0,0-.75.05,4.61,4.61,0,0,0-2.52,2.57s-.21.54-.28.81a4.38,4.38,0,0,0-.17.87,3.15,3.15,0,0,1-.4,1,2.67,2.67,0,0,0-.34,2.19,3,3,0,0,1-.07,2.15c-.09.29-.08,1.08-.3,1.28s-.44.37-.55.47a.79.79,0,0,0-.38.64,6.93,6.93,0,0,1-.17.93c-.09.25-.66,1-1,1a.86.86,0,0,0-.66.54,1.07,1.07,0,0,1-.39.42l-.05,0c-.5.23-.51.39.16.4" />
			<path class="a1cac26b-a140-4cc5-8617-4717d771ca40" d="M46.4,33.72c-.27.33,3.78,5.66,5.06,7.42s3.7,4.51,4.1,4.92,1,.52.43-.19-2.46-3.53-3.57-5.45c-.45-.77-.86-1.34-1.29-2.17-.19-.37-.28-.58-.47-.94a14.39,14.39,0,0,0-.67-1.4,10.75,10.75,0,0,0-.76-1,4.11,4.11,0,0,0-.77-.65A2.4,2.4,0,0,0,47.4,34c-.49,0-.71-.64-1-.29" />
			<path class="a1cac26b-a140-4cc5-8617-4717d771ca40" d="M53.88,47.27a3.82,3.82,0,0,1,.29-.48.58.58,0,0,0,.14-.17.46.46,0,0,0-.05-.34c0-.09-2.29-2.19-2.73-2.73-1-1.26-2.94-4.38-2.93-4a57.79,57.79,0,0,0,.3,7.5c.42,4.21,1.21,14.3,1.32,15.55s.29,2.4.61,1.4c.16-.5,1.78-6.66,2.28-8.7a7.11,7.11,0,0,0,.11-2.91,11.35,11.35,0,0,1,0-3.08,6.28,6.28,0,0,1,.67-2.08" />
			<path class="a1cac26b-a140-4cc5-8617-4717d771ca40" d="M47.86,94.77c.07-.6-.3-.73-.68.13s-1.09,1.35-1.35,2.77a4.26,4.26,0,0,0,1,3.57c.84,1.13,1,.8,1,.46,0-.53-.11-2-.08-3.24s.07-3.12.13-3.69" />
			<path class="a1cac26b-a140-4cc5-8617-4717d771ca40" d="M62.69,53.71a.67.67,0,0,1-.78,0,17.86,17.86,0,0,1-2.46-2.25c-1.58-1.59-3.3-4-3.92-3.92s-1.87,3-1.13,4.86c.34.87,1.19.75,3,1.68a12.3,12.3,0,0,1,1.54.66c1,.36,1.83,1,2.94.91a2.68,2.68,0,0,0,2-1c.11-.15.21-.32.33-.47.31-.36.71-.38,1.1-.58s.69-.25.8-.53c0,0,0,0,0-.07a.18.18,0,0,0-.07-.19c-.14-.09-.46,0-.62,0l-.77,0a3.15,3.15,0,0,0-1,.29,2.85,2.85,0,0,1-.55.28c-.14.09-.29.16-.42.26" />
			<path class="a1cac26b-a140-4cc5-8617-4717d771ca40" d="M56.28,57c0,.75-.41,19.67-.41,20.32s-.65.83-.65,0-.13-18.19-.13-19.41c0-1.47-.08-2.18-.57-1.78s-1.13,2.71-2,5.93S51,65.8,51.76,67.31s.26,2.59-.47,4.12.45,1.88-.94,4-.79,5.12-.17,6.55c.91,2.13.07,3.67-.38,4.81s-.3,1.9,1.23,3.59c.9,1,4,3,4,1.92,0-.35.22-6.41.23-7s.72-.71.74,0,.15,4.75.18,5.25c.11,1.75,1.53,1.39,2,2.72s-.87,2-.37,2.73,1.07,1.06,1.56-.11-.12-10.29-.12-12.67,1.13-8.12,1.35-11.81-1-12.68-1.19-13.68c-.07-.3-3.12-1.86-3.13-.71" />
			<path class="a1cac26b-a140-4cc5-8617-4717d771ca40" d="M66.44,57.47a1.67,1.67,0,0,0,.28.18c.14.06.28.08.42.14s.23.14.32.17a.83.83,0,0,0,.58-.07c.14-.07.35,0,.46-.15s.14-.32.31-.39.34,0,.46,0,.24-.06.27-.17,0-.24,0-.36.16-.1.24-.17a.32.32,0,0,0,.1-.28.35.35,0,0,0,0-.14c-.13-.31-.48-.42-.74-.59a3.91,3.91,0,0,0-.65-.4.85.85,0,0,0-.22-.08.61.61,0,0,0-.27.12.28.28,0,0,0-.06.18c0,.11.08.25,0,.32a2.69,2.69,0,0,0-.29.16.27.27,0,0,0-.08.07c0,.09.07.27,0,.34l-.12,0c-.09,0-.2,0-.24.1a.59.59,0,0,0,0,.27c0,.08,0,.19-.1.21l-.2,0c-.13,0-.38-.05-.45.1a.32.32,0,0,0,.11.41" />
			<path class="a1cac26b-a140-4cc5-8617-4717d771ca40" d="M36.15,24.81c.13,0,.29.08.42.08s0,0,0-.07a.15.15,0,0,0-.1-.11l-.14-.07a.8.8,0,0,0-.43-.09.64.64,0,0,0-.24.05.92.92,0,0,0-.35.23c-.06.08,0,.06,0,.05l.38-.06a1.7,1.7,0,0,1,.39,0" />
			<path class="a1cac26b-a140-4cc5-8617-4717d771ca40" d="M26.83,36.41a9.18,9.18,0,0,1,3-2.55.66.66,0,0,0-.53,0,1.82,1.82,0,0,1-.85.17c-.58-.14-2.08,1.07-2.55,2.12s-1.15,2.28-1.55,3.08a1.78,1.78,0,0,0-.18.44l-.51,1.14,0,0c1.64-1.63,2.07-3,3.17-4.39" />
			<path class="a1cac26b-a140-4cc5-8617-4717d771ca40" d="M47.7,107.64a2.27,2.27,0,0,1-.21-.41.46.46,0,0,0-.33-.29c-.38,0-.72.83-.69,1.14.05.54.9.35,1.32.36a.37.37,0,0,0,.24,0c.13-.09.1-.3,0-.43s-.25-.21-.34-.33" />
			<path class="a1cac26b-a140-4cc5-8617-4717d771ca40" d="M47.32,103.81a1.21,1.21,0,0,0-.2-.3c-.16-.21-.9-1.07-1.37-1.69s-.66-1.52-1-1.62c-.16-.06-.37.13-.37.39a41.52,41.52,0,0,0,.32,5.57,1.2,1.2,0,0,0,.49,1,.31.31,0,0,0,.21,0,.32.32,0,0,0,.14-.12c.46-.59.94-1.15,1.36-1.77s.75-.83.43-1.48" />
			<path class="a1cac26b-a140-4cc5-8617-4717d771ca40" d="M24.55,53.12c-.19.17-.31,1.09-.19,3.29.14,2.76.87,4.9,2,5.45s3-.13,6.4-3.54a60.24,60.24,0,0,0,8.45-11.13,56.66,56.66,0,0,0,4.94-11.54c.1-.43-.39-.55-.48-.29a58.74,58.74,0,0,1-3.45,7.45,39.11,39.11,0,0,1-7.38,10.37c-4.68,4.65-7.67,4.91-8.88,3-.95-1.47-.91-3.48-1.38-3.07" />
			<path class="a1cac26b-a140-4cc5-8617-4717d771ca40" d="M47.45,37.77c-.07-.88-.78-1.8-.88-1.33s-3.18,9.92-7,15.22c-3.52,5-6.83,8.93-9.5,11a4.16,4.16,0,0,1-4.21.92c-2.34-.91-2.41-7.07-2.33-8.91s-.06-2-.93-1.8-3,.82-3,2.33,1.1,13.69,7.16,14.09c3.7.25,7.83-7.62,8.76-9.54s1.9-3.67,1.39-1.35-3,6.77-4.74,9.28-2.73,2.6-2.81,3a14.36,14.36,0,0,0-.23,4.6c.25,1.24-.61,9.26-.7,9.83a24.87,24.87,0,0,0-.4,5.83,36.62,36.62,0,0,1-.63,8.1,6.59,6.59,0,0,0,0,3,3.35,3.35,0,0,1-.11,1.63c-.75,1.38.12.45,2.55.52s4.58-.25,8.35-3,8.31-6,8.68-7.87c.2-1,.81-.73,1-1.06a40.75,40.75,0,0,0,.63-7.66c.06-3.87,1.13-18.79.27-26s-1.3-20-1.36-20.86M44.24,49.24C44,50.7,43,59.76,41.8,67.16S39.36,86.43,35.36,93.8a27.82,27.82,0,0,1-4.86,6.69c-.52.53-1.33.53-.39-.64a21.9,21.9,0,0,0,2.14-3.07c2.8-4.87,4.46-11.72,6.42-19.26s4-23.71,4.48-26.7,1.28-3,1.09-1.58" />
			<path class="a1cac26b-a140-4cc5-8617-4717d771ca40" d="M40.05,24.74a1.24,1.24,0,0,0-.2-.1,1.69,1.69,0,0,0-.24-.08.89.89,0,0,0-.43,0,.62.62,0,0,0-.22.1s-.24.1-.22.2.39,0,.52,0a1.87,1.87,0,0,1,.41,0l.31.07a.09.09,0,0,0,.12-.05v-.05s0,0-.05-.05" />
			<path class="a1cac26b-a140-4cc5-8617-4717d771ca40" d="M65.32,55.7c-.19,0-.51-.05-.59.21a.32.32,0,0,0,.14.3.62.62,0,0,0,.4,0,2.1,2.1,0,0,0,.5-.09.85.85,0,0,1,.31-.09.87.87,0,0,0-.76-.38" />
			<path class="a1cac26b-a140-4cc5-8617-4717d771ca40" d="M28,48.51c.95-.8.18-2.83.18-2.83a9,9,0,0,0-2.55,4.15c-.53,2.37.26,5.28,2.07,5.69,2.07.47,7.6-4,11.67-9.78s6-11.35,5.8-11.7a3.33,3.33,0,0,0-1.57-1.16c-.39,0-3.81,6.31-5.94,9.39-.69,1-7.08,5.75-8.14,6.54s-2.07.77-2,1.34c.09,1.1-.4,2.79-.78,1.89-.85-2,.54-2.92,1.28-3.53" />
			<path class="a1cac26b-a140-4cc5-8617-4717d771ca40" d="M42.36,24.06v0c0,.1-.08.27-.12.34a4.5,4.5,0,0,1-.31.45c-.51.7.3,1.42.52,1.89.31.68-.11.85-.24,1.58a1.47,1.47,0,0,0,.19.89.22.22,0,0,0,.05.08,1.87,1.87,0,0,0,.71.5,2,2,0,0,1,1,.73c.18.36-.24.82,0,1.13a4,4,0,0,0,.7.52c.21.17.33.44.55.6a1.13,1.13,0,0,0,.75.14,2.49,2.49,0,0,1,.77,0c.2,0,.83.52,1,.25a0,0,0,0,0,0,0,.65.65,0,0,0-.15-.8,1,1,0,0,0-.6-.24.67.67,0,0,1-.74-.55,1.44,1.44,0,0,0-.47-.86c-.13-.11-.39-.24-.56-.36a2.6,2.6,0,0,1-.55-.85,1.68,1.68,0,0,0-.54-.74,2.26,2.26,0,0,0-.64-.3c-.42-.15-.33-.57-.26-.93a2.81,2.81,0,0,0,.05-.78,2.42,2.42,0,0,0-.26-.74,2.3,2.3,0,0,1-.24-.77c0-.23-.05-.59-.05-.59,0-.42-.08-.69-.31-.75s-.21,0-.27.16" />
		</g>
	</g>
</svg>
