<?xml version="1.0" encoding="utf-8"?>
<!-- Generator: Adobe Illustrator 25.0.0, SVG Export Plug-In . SVG Version: 6.00 Build 0)  -->
<svg version="1.1" id="Layer_1" xmlns="http://www.w3.org/2000/svg" xmlns:xlink="http://www.w3.org/1999/xlink" x="0px" y="0px"
	 viewBox="0 0 75.5 110.8" style="enable-background:new 0 0 75.5 110.8;" xml:space="preserve">
<style type="text/css">
	.st0{fill:#FFFFFF;}
</style>
<path class="st0" d="M37.7,0C16.9,0,0,16.9,0,37.7v73.1h75.5V37.7C75.4,16.9,58.6,0,37.7,0z M28.2,106.4c0,0.1,0,0.2-0.1,0.2
	c-0.1,0.1-0.2,0.2-0.3,0.3c-0.1,0.1-0.3,0.1-0.4,0c0-0.1,0-0.1,0-0.2l0,0c0-0.1,0.1-0.1,0.1-0.2s0.1-0.1,0.1-0.2
	c0.1-0.1,0.2-0.2,0.4-0.3c0.1,0,0.2,0.1,0.2,0.2C28.2,106.3,28.2,106.4,28.2,106.4z M39.6,106.7c0,0-0.1,0-0.2,0c-0.1,0-0.1,0-0.2,0
	c-0.2-0.1-0.3-0.3-0.5-0.5c0-0.1,0-0.2,0-0.2c0.1-0.1,0.2-0.1,0.3-0.1c0.2,0,0.4,0.1,0.5,0.2s0.1,0.2,0.1,0.4
	C39.7,106.6,39.6,106.7,39.6,106.7z M42.3,109c0.1-0.1,0.1-0.2,0.2-0.3c0.1-0.2,0-0.4-0.2-0.6V108c-0.2-0.2-0.3-0.4-0.6-0.6
	c-0.2-0.1-0.3-0.2-0.4-0.4c-0.2-0.4-0.9-0.9-1.1-1.3c-0.2-0.5-0.2-1.2,0-1.7c0.2-0.7,0.4-1.5,0.6-2.1c0.1-0.2,0.3-0.7,0.3-0.9
	c-0.1-0.2-0.3,0.1-0.5,0.3c-0.8,0.8-1.7,1.5-2.7,2.1c-0.3,0.2-0.7,0.4-0.9,0.7c-0.3,0.3-0.2,0.7-0.3,1.1c0,0.1,0,0.2,0,0.3
	c0,0.1,0.1,0.2,0.1,0.4c0.1,0.4,0.1,0.9,0,1.3c0,0.3,0,0.5,0,0.8v0.1c0,0.4,0.1,0.7,0.4,0.9H29c0.1-0.1,0.2-0.3,0.2-0.5
	c0.1-0.4,0.2-0.7,0.2-1.1V107c0-0.3,0-0.6-0.1-0.9c-0.1-0.2-0.2-0.4-0.4-0.5c-0.4-0.3-1-0.3-1.4,0s-0.6,0.9-1.1,1.2
	c-0.4,0.3-0.6,0.8-1.2,1c-0.2,0.1-0.4,0.1-0.5,0.2c-0.1,0-0.1,0.1-0.2,0.1c-0.2,0.2-0.6,0.7-0.4,0.9l0.1,0.1H1.8V37.7
	C2.2,17.9,18.5,2.1,38.3,2.4c19.4,0.3,35,15.9,35.3,35.3V109H42.3z"/>
<path class="st0" d="M23.1,49.7c0.2-0.3,0.4-0.6,0.7-0.9c0.6-0.7,1.3-1.4,1.9-2.1c1.3-1.2,2-2.9,2.2-4.6c0.4-2.7,0.5-3.2,0.8-3.4
	c0.4-0.2,0,0.5,1.5,1.6c0.8,0.6,0.8,1,0.2,0.9c-0.6-0.1-1-0.5-1.2-0.2c-0.3,1-0.4,2-0.2,3c0.2,0.4,0.4,2.7,0.5,3.5
	c0,0,6.7-4.6,7.5-5.7c1.3-1.8,2.4-3.7,3.4-5.6c0.3-0.6,0.6-1.2,0.9-1.9c0.1-0.2,0.2-0.5,0.3-0.7s0.3-0.6,0.5-1
	c0-0.1-0.1-0.2-0.1-0.2c-0.3-0.1-0.6-0.1-0.8,0s-0.4,0.3-0.7,0.3c-0.2,0-0.4-0.1-0.5-0.2c-0.2-0.1-0.7,0.8-0.8,0.8
	c-0.3,0.1-0.7,0.1-1-0.1c-0.5-0.2-0.9-0.5-1.2-1c0-0.1,0-0.2,0-0.2c0.1-0.1,0.1-0.1,0.2-0.1c0.1,0,0.3-0.1,0.4-0.1
	c0.2-0.1,0.1-0.9,0.4-0.8c0.3,0,0.1,0.3,0.2,0.4c0,0.2,0.1,0.3,0.3,0.4c0.2,0,0.4-0.1,0.5-0.3c0.1-0.2,0.2-0.4,0.2-0.5
	s0.2-0.6,0.4-0.6c0,0,0.1,0,0.1,0.1c0.1,0.1-0.1,0.2,0,0.4s0.6-0.4,0.5-1.1c0-0.4,0.1-0.9,0.3-1.3s0.2-0.8,0.2-1.2
	c0-0.4,0.3-0.6,0.4-1c0.1-0.4-0.4-0.7-0.5-0.8c-0.1,0-0.1-0.1-0.2-0.1c-0.1,0-0.6-0.3-0.7-0.2c-0.1,0.2-0.3,0.3-0.5,0.2l0,0
	c-0.2-0.1-0.4-0.1-0.5,0s-0.2,0-0.2,0c-0.1,0.3,0.1,0.7,0.4,1.4c0.1,0.2,0.4,0.9,0.2,1.1C39,28,38.9,28,38.8,28.1
	c-0.1,0-0.2,0-0.3-0.1c-0.3-0.1-0.4,0-0.7,0c-0.2,0-0.3,0-0.5-0.1c-0.1,0-0.2-0.2-0.4-0.2s-0.1-0.1-0.1-0.1h0.1
	c0.2,0,0.2-0.1,0.3-0.1s0.2,0.2,0.4,0.2c0.1,0,0.2-0.1,0.3-0.1c0.1-0.1,0.1-0.2,0.1-0.3c0-0.3,0-0.7,0-1c0-0.1-0.1-0.2-0.1-0.3
	c0-0.1,0-0.2,0-0.3v-0.1c0-0.2,0-0.5,0.1-0.7c0-0.1,0.1-0.2,0.2-0.3c0.3-0.3,0.6-0.5,1-0.6c0.2,0,0.4,0,0.6,0c0.2,0,0.6,0.2,0.8,0
	c0.1-0.1,0.2-0.2,0.2-0.3c0-0.1-0.1-0.2-0.2-0.3c-0.4-0.6-0.2-1.6-1-1.9c-0.6-0.2-1.7-0.3-1.9-0.9c-0.1-0.2-0.1-0.3-0.2-0.1
	c-0.2,0.7-0.5,0.7-1.1,0.9c-0.6,0.2-1.8,0.7-1.8,1.8c0,1.2-0.5,1.2-0.2,2c0.2,0.4,0.3,0.7,0.4,1.1c0,0.7,0.1,1.4,0.3,2
	c0,0.2,0.2,0.5,0.2,0.7c0.3,1,0.6,1.2,0.5,1.5c-0.1,0.2-0.1,0.5-0.3,0.7c-0.2,0.4-0.5,0.7-0.9,1c-0.4,0.4-1.5,0.3-2,0.9
	c-0.3,0.4-0.7,0.8-1.1,1.1c-0.3,0.1-0.6,0.1-0.9,0c-1.5,0.9-2.7,2.1-3.6,3.5c-1,1.8-2.3,3.3-3.8,4.7c-0.2,0.2-0.4,0.3-0.6,0.4
	c-0.7,1.5-1.4,2.8-2,3.2c-0.7,0.4-1.4,1-1.9,1.7l-0.3,0.4c-0.7,0.9-1.6,1.7-2.5,2.3c-0.3,0.3-0.6,0.5-1,0.8
	c-0.3,0.2-0.3,0.3-0.7,0.5c-0.1,0.1-0.2,0.2-0.3,0.3c-0.2,0.1-0.4,0.2-0.6,0.1c-0.2,0-0.3-0.1-0.5-0.2c-0.5-0.2-1-0.4-1.6-0.5
	c-0.3-0.1-0.7-0.2-1-0.2c-0.2,0-1-0.3-1.1,0c0,0.1,0,0.2,0,0.2c0.1,0.2,0.5,0.2,0.7,0.3s0.5,0.2,0.7,0.3s0.4,0.3,0.6,0.5
	c0.1,0.1,0.2,0.2,0.2,0.3c0.3,0.4,0.7,0.6,1.1,0.7c0.2,0,0.3,0,0.5,0l0.6-0.1c0.4,0,0,0.7-0.4,0.9c-0.5,0.3-1,0.3-1.5,0.2
	c-0.8-0.2-0.7-0.8-1-1.3c-0.1-0.2-0.3-0.3-0.5-0.3c-0.4,0-0.8,0-1.1,0.2c-0.3,0.1-0.6,0.1-0.9,0.3c-0.3,0.1-0.3,0.1-0.5,0.2
	c-0.3,0.1-0.5,0.2-0.8,0.3c-0.2,0.1-0.5,0.3-0.7,0.4c-0.2,0.1-0.4,0.2-0.5,0.3c-0.1,0-0.2,0.1-0.2,0.2c0,0.1,0.3,0.1,0.4,0.1
	s2.5-1.1,2.5-0.7v0.1c-0.3,0.2-0.6,0.3-0.9,0.5S7.2,55.2,7,55.4s-0.4,0.4-0.6,0.5s-0.5,0.4-0.6,0.6c0,0.1,0,0.2,0.1,0.2
	c0.2,0.1,0.4,0.1,0.5-0.1c0.1-0.1,0.2,0,0.2,0.2c-0.1,0.1,0.2,0.4,0.4,0.4c0.1,0,0.2,0,0.4,0l0.1,0.1c0.1,0.1,0.3,0.1,0.4,0
	s0.2-0.1,0.3-0.2c0.6-0.3,1.3-0.5,2-0.7c0.2,0,0.3,0,0.5,0s0.5,0,0.7-0.1c0.5,0,1-0.1,1.5-0.3c0.4-0.1,0.8-0.3,1.1-0.6
	s0.5-0.5,0.8-0.9c0.7-0.5,1.4-1,2.1-1.3c0.7-0.4,1.5-0.7,2.2-1c1.5-0.4,2.8-1.2,3.9-2.3L23.1,49.7z M38.2,29.7L38.2,29.7
	c-0.1,0-0.2,0-0.3,0s-0.2,0-0.3,0s-0.2,0.1-0.4,0.1c-0.1,0-0.3-0.2-0.1-0.4c0.2-0.2,0.3,0,0.5,0c0.2-0.1,0.5-0.1,0.7,0
	C38.5,29.5,38.4,29.7,38.2,29.7z M37,28.6L37,28.6c0-0.1,0.2-0.1,0.3-0.1s0.2,0.1,0.4,0.1h0.1c0.1,0,0.2-0.1,0.4-0.1
	c0.1,0,0.3,0,0.4,0.1c0.1,0.1,0.1,0.1,0.2,0.1c0.1,0,0.2,0,0.2,0c0.1,0,0.1,0,0.2,0.1s0,0,0,0.1L39.1,29h-0.4c-0.1,0-0.3,0-0.4,0
	c-0.2,0-0.4,0-0.6,0c-0.2,0-0.3,0-0.5,0c-0.3,0-0.5,0-0.8,0c0,0-0.1,0-0.1-0.1c0,0,0,0,0-0.1s0.1,0,0.1-0.1c0.1,0,0.2-0.1,0.2-0.1
	C36.9,28.6,36.9,28.6,37,28.6z M35.5,25.3L35.5,25.3c0,0-0.1-0.1-0.2-0.1C35.1,25,35,25.4,35,24.8c0-0.3,0-0.7,1-0.7
	c0.6,0,1.2,0.4,1.4,0.9c0,0.1,0.1,0.2,0,0.3c-0.1,0.1-0.1,0.1-0.2,0.1c-0.1-0.1,0,0-0.1-0.1H37c-0.2,0-0.4-0.1-0.6,0.1
	c-0.1,0.1-0.2,0.1-0.3,0.1s-0.2-0.1-0.3-0.1C35.8,25.3,35.6,25.3,35.5,25.3z M31.4,43.4L31.4,43.4c0.3,0.1,0.7,0.2,0.9,0.5
	c0.2,0.2-0.3,0.3-0.6,0.2c-0.2-0.1-0.3-0.1-0.5-0.2c-0.2-0.1-0.5-0.1-0.6-0.3l-0.1-0.1l-0.1-0.3v-0.1c0,0,0.3,0,0.4,0.1
	C31,43.3,31.2,43.3,31.4,43.4z M10.9,55.1L10.9,55.1c-0.1,0.1-0.3,0.1-0.4,0.1H10H9.9c-0.1,0-0.1,0-0.2,0H9.6l0.1-0.1
	c0.1-0.3,0.4-0.5,0.7-0.5c0.2,0,0.5-0.1,0.6,0.2C11,54.9,11,55,10.9,55.1z"/>
<path class="st0" d="M38,18c-0.1,0.6-0.1,1.2,0,1.8c0.4,0.6,1.1,0.9,1.8,0.9l0,0c0.5,0,0.8,0.1,1,0.5s0.5,0.6,0.8,1l0.1,0.1l0.1,0.1
	c0.1,0.1,0.1,0.2,0.2,0.3c0.1,0.1,0.2,0.2,0.3,0.1c0.1,0,0.2-0.3,0.2-0.5s0-0.3-0.1-0.5S42,21.2,42,21c-0.1-0.4-0.2-0.8-0.4-1.1
	c-0.1-0.4-0.4-0.9-0.7-1.2c-0.2-0.2-0.4-0.4-0.7-0.6c-0.3-0.3-0.6-0.5-1-0.5c-0.3-0.1-0.7-0.2-1-0.1c-0.2,0-0.4,0.2-0.4,0.3
	C37.9,17.9,38,18,38,18L38,18z"/>
<path class="st0" d="M29.2,33L29.2,33c0.4,0,0.7-0.4,1-0.1c0.3,0.3,0.2,0.4,0.5,0.4c0.3,0.1,0.6-0.1,0.7-0.4c0-0.1,0.1-0.2,0.2-0.3
	c0.4-0.4,0.7,0.3,1.5-0.9c0.6-0.9-0.2-1,0.5-2.4c0.5-1-0.3-1.5,0.1-2.3c0.4-0.8,0.1-1.6-0.1-2.6c-0.1-0.7,0.1-1.4,0.6-1.9
	c0.3-0.5,0.2-1.5,1-1.7s1.7-0.3,1.9-0.6c0.2-0.6,0.3-1.2,0.3-1.9c0-0.1,0-0.3,0-0.4c0-0.2-0.2-0.3-0.3-0.3c-0.3,0-0.5,0-0.8,0
	c-1.2,0.5-2.1,1.4-2.5,2.6c0,0-0.2,0.5-0.3,0.8s-0.1,0.6-0.2,0.9c-0.1,0.4-0.2,0.7-0.4,1c-0.4,0.6-0.5,1.4-0.3,2.2
	c0.2,0.7,0.2,1.5-0.1,2.1c-0.1,0.3-0.1,1.1-0.3,1.3c-0.2,0.2-0.4,0.4-0.5,0.5c-0.2,0.1-0.4,0.4-0.4,0.6c0,0.3-0.1,0.6-0.2,0.9
	c-0.1,0.2-0.7,1-1,1c-0.3,0.1-0.6,0.3-0.7,0.5s-0.2,0.3-0.4,0.4h0C28.5,32.8,28.5,33,29.2,33z"/>
<path class="st0" d="M46.4,33.7L46.4,33.7c-0.3,0.3,3.8,5.7,5.1,7.4c1.3,1.8,3.7,4.5,4.1,4.9c0.4,0.4,1,0.5,0.4-0.2
	s-2.5-3.5-3.6-5.5c-0.4-0.8-0.9-1.3-1.3-2.2c-0.2-0.4-0.3-0.6-0.5-0.9c-0.2-0.5-0.4-0.9-0.7-1.4c-0.2-0.3-0.5-0.7-0.8-1
	c-0.2-0.2-0.5-0.5-0.8-0.7s-0.7-0.3-1.1-0.3C46.9,34,46.7,33.4,46.4,33.7z"/>
<path class="st0" d="M54.2,46.8c0.1,0,0.1-0.1,0.1-0.2c0-0.1,0-0.2,0-0.3s-2.3-2.2-2.7-2.7c-1-1.3-2.9-4.4-2.9-4
	c-0.1,2.5,0,5,0.3,7.5c0.4,4.2,1.2,14.3,1.3,15.6c0.1,1.2,0.3,2.4,0.6,1.4c0.2-0.5,1.8-6.7,2.3-8.7c0.2-1,0.3-1.9,0.1-2.9
	c-0.1-1-0.1-2.1,0-3.1c0.1-0.7,0.3-1.4,0.7-2.1l0,0C54,47.1,54.1,46.9,54.2,46.8z"/>
<path class="st0" d="M47.2,94.9c-0.4,0.9-1.1,1.3-1.3,2.8c-0.2,1.3,0.1,2.6,1,3.6c0.8,1.1,1,0.8,1,0.5c0-0.5-0.1-2-0.1-3.2
	s0.1-3.1,0.1-3.7l0,0C47.9,94.2,47.6,94,47.2,94.9z"/>
<path class="st0" d="M65.4,52.8h-0.8c-0.3,0-0.7,0.1-1,0.3c-0.2,0.1-0.4,0.2-0.6,0.3c-0.1,0.1-0.3,0.2-0.4,0.3v0.1
	c-0.2,0.2-0.5,0.2-0.8,0c-0.9-0.7-1.7-1.4-2.5-2.2c-1.6-1.6-3.3-4-3.9-3.9c-0.6,0.1-1.9,3-1.1,4.9c0.3,0.9,1.2,0.8,3,1.7
	c0.5,0.2,1,0.4,1.5,0.7c1,0.4,1.8,1,2.9,0.9c0.8,0,1.5-0.4,2-1c0.1-0.2,0.2-0.3,0.3-0.5c0.3-0.4,0.7-0.4,1.1-0.6
	c0.4-0.2,0.7-0.2,0.8-0.5c0,0,0,0,0-0.1s0-0.1-0.1-0.2C65.9,52.7,65.6,52.8,65.4,52.8z"/>
<path class="st0" d="M56.3,57L56.3,57c0,0.7-0.4,19.6-0.4,20.3s-0.7,0.8-0.7,0s-0.1-18.2-0.1-19.4c0-1.5-0.1-2.2-0.6-1.8
	s-1.1,2.7-2,5.9s-1.5,3.7-0.8,5.2s0.3,2.6-0.5,4.1c-0.7,1.5,0.5,1.9-0.9,4s-0.8,5.1-0.2,6.5c0.9,2.1,0.1,3.7-0.4,4.8
	c-0.5,1.1-0.3,1.9,1.2,3.6c0.9,1,4,3,4,1.9c0-0.3,0.2-6.4,0.2-7s0.7-0.7,0.7,0s0.2,4.8,0.2,5.2c0.1,1.8,1.5,1.4,2,2.7
	c0.5,1.3-0.9,2-0.4,2.7s1.1,1.1,1.6-0.1s-0.1-10.3-0.1-12.7c0-2.4,1.1-8.1,1.3-11.8c0.2-3.7-1-12.7-1.2-13.7
	C59.3,57.4,56.3,55.9,56.3,57z"/>
<path class="st0" d="M69.1,55.6c-0.2-0.2-0.4-0.3-0.7-0.4c-0.1,0-0.1-0.1-0.2-0.1s-0.2,0.1-0.3,0.1c0,0.1-0.1,0.1-0.1,0.2
	c0,0.1,0.1,0.2,0,0.3c-0.1,0-0.2,0.1-0.3,0.2c0,0-0.1,0-0.1,0.1s0.1,0.3,0,0.3h-0.1c-0.1,0-0.2,0-0.2,0.1s0,0.2,0,0.3s0,0.2-0.1,0.2
	h-0.2c-0.1,0-0.4,0-0.4,0.1c-0.1,0.1,0,0.3,0.1,0.4h-0.1c0.1,0.1,0.2,0.1,0.3,0.2c0.1,0.1,0.3,0.1,0.4,0.1s0.2,0.1,0.3,0.2
	c0.2,0,0.4,0,0.6-0.1c0.1-0.1,0.4,0,0.5-0.2c0.1-0.1,0.1-0.3,0.3-0.4c0.2-0.1,0.3,0,0.5,0s0.2-0.1,0.3-0.2c0-0.1,0-0.2,0-0.4
	s0.2-0.1,0.2-0.2c0.1-0.1,0.1-0.2,0.1-0.3V56C69.8,55.9,69.4,55.8,69.1,55.6z"/>
<path class="st0" d="M36.2,24.8c0.1,0,0.3,0.1,0.4,0.1s0,0,0-0.1s0-0.1-0.1-0.1l-0.1-0.1c-0.1-0.1-0.3-0.1-0.4-0.1
	c-0.1,0-0.2,0-0.2,0c-0.1,0-0.3,0.1-0.3,0.2c-0.1,0.1,0,0.1,0,0l0.4-0.1C35.8,24.8,36,24.8,36.2,24.8L36.2,24.8z"/>
<path class="st0" d="M26.8,36.4c0.8-1.1,1.8-1.9,3-2.6c-0.2-0.1-0.4-0.1-0.5,0C29,34,28.7,34,28.5,34c-0.6-0.1-2.1,1.1-2.5,2.1
	c-0.5,1-1.2,2.3-1.6,3.1c-0.1,0.1-0.1,0.3-0.2,0.4l-0.5,1.1C25.3,39.2,25.7,37.8,26.8,36.4L26.8,36.4z"/>
<path class="st0" d="M47.7,107.7L47.7,107.7c-0.1-0.2-0.1-0.3-0.2-0.5c-0.1-0.1-0.2-0.3-0.3-0.3c-0.4,0-0.7,0.8-0.7,1.1
	c0,0.5,0.9,0.3,1.3,0.4c0.1,0,0.2,0,0.2,0c0.1-0.1,0.1-0.3,0-0.4C47.9,107.9,47.8,107.8,47.7,107.7z"/>
<path class="st0" d="M47.3,103.8L47.3,103.8c-0.1-0.1-0.1-0.2-0.2-0.3c-0.2-0.2-0.9-1.1-1.4-1.7s-0.7-1.5-1-1.6
	c-0.2-0.1-0.4,0.1-0.4,0.4c0,1.9,0.1,3.7,0.3,5.6c0,0.4,0.2,0.8,0.5,1c0.1,0,0.1,0,0.2,0c0.1,0,0.1-0.1,0.1-0.1
	c0.5-0.6,0.9-1.1,1.4-1.8C47.3,104.7,47.7,104.4,47.3,103.8z"/>
<path class="st0" d="M24.6,53.1L24.6,53.1c-0.2,0.2-0.3,1.1-0.2,3.3c0.1,2.8,0.9,4.9,2,5.4c1.1,0.6,3-0.1,6.4-3.5
	c3.2-3.4,6.1-7.1,8.5-11.1c2.1-3.7,3.7-7.5,4.9-11.5c0.1-0.4-0.4-0.6-0.5-0.3c-1,2.6-2.1,5.1-3.5,7.5c-1.9,3.8-4.4,7.3-7.4,10.4
	c-4.7,4.7-7.7,4.9-8.9,3C25,54.7,25,52.7,24.6,53.1z"/>
<path class="st0" d="M47.4,37.7L47.4,37.7c0-0.8-0.7-1.8-0.8-1.3s-3.2,9.9-7,15.2c-3.5,5-6.8,8.9-9.5,11c-1.1,1.1-2.7,1.4-4.2,0.9
	c-2.3-0.9-2.4-7.1-2.3-8.9s-0.1-2-0.9-1.8c-0.9,0.2-3,0.8-3,2.3s1.1,13.7,7.2,14.1c3.7,0.2,7.8-7.6,8.8-9.5s1.9-3.7,1.4-1.3
	c-0.5,2.3-3,6.8-4.7,9.3s-2.7,2.6-2.8,3c-0.3,1.5-0.4,3.1-0.2,4.6c0.2,1.2-0.6,9.3-0.7,9.8C28.1,87,27.9,89,28,90.9
	c0.1,2.7-0.1,5.4-0.6,8.1c-0.2,1-0.2,2,0,3c0.1,0.5,0.1,1.1-0.1,1.6c-0.8,1.4,0.1,0.5,2.6,0.5c2.4,0.1,4.6-0.2,8.3-3s8.3-6,8.7-7.9
	c0.2-1,0.8-0.7,1-1.1c0.5-2.5,0.7-5.1,0.6-7.7c0.1-3.9,1.1-18.8,0.3-26C47.9,51.4,47.5,38.6,47.4,37.7z M44.2,49.2
	c-0.2,1.5-1.2,10.6-2.4,18s-2.4,19.3-6.4,26.6c-1.3,2.5-2.9,4.7-4.9,6.7c-0.5,0.5-1.3,0.5-0.4-0.6c0.8-1,1.5-2,2.1-3.1
	c2.8-4.9,4.5-11.7,6.4-19.3c2-7.5,4-23.7,4.5-26.7S44.4,47.8,44.2,49.2z"/>
<path class="st0" d="M39.8,24.6c-0.1,0-0.2-0.1-0.2-0.1c-0.1,0-0.3,0-0.4,0c-0.1,0-0.2,0.1-0.2,0.1s-0.2,0.1-0.2,0.2s0.4,0,0.5,0
	s0.3,0,0.4,0l0.3,0.1h0.1l0,0l0,0l0,0l0,0C40,24.7,39.9,24.7,39.8,24.6z"/>
<path class="st0" d="M65.3,55.7L65.3,55.7c-0.2,0-0.5,0-0.6,0.3c0,0.1,0,0.2,0.1,0.3c0.1,0,0.3,0,0.4,0c0.2,0,0.3,0,0.5-0.1
	c0.1,0,0.2-0.1,0.3-0.1C65.9,55.8,65.6,55.6,65.3,55.7z"/>
<path class="st0" d="M28.2,45.7c-1.2,1.1-2.1,2.6-2.5,4.2c-0.5,2.4,0.3,5.3,2.1,5.7c2.1,0.5,7.6-4,11.7-9.8s6-11.3,5.8-11.7
	c-0.4-0.5-0.9-0.9-1.6-1.2c-0.4,0-3.8,6.3-5.9,9.4c-0.7,1-7.1,5.8-8.1,6.5c-1.1,0.8-2.1,0.8-2,1.3c0.1,1.1-0.4,2.8-0.8,1.9
	c-0.8-2,0.5-2.9,1.3-3.5l0,0C29,47.7,28.2,45.7,28.2,45.7z"/>
<path class="st0" d="M42.3,24.1L42.3,24.1c0,0.1-0.1,0.3-0.1,0.3c-0.1,0.2-0.2,0.3-0.3,0.5c-0.5,0.7,0.3,1.4,0.5,1.9
	c0.3,0.7-0.1,0.9-0.2,1.6c0,0.3,0,0.6,0.2,0.9v0.1c0.2,0.2,0.4,0.4,0.7,0.5c0.4,0.1,0.8,0.4,1,0.7c0.2,0.4-0.2,0.8,0,1.1
	c0.2,0.2,0.4,0.4,0.7,0.5c0.2,0.2,0.3,0.4,0.5,0.6c0.2,0.1,0.5,0.2,0.8,0.1c0.3,0,0.5,0,0.8,0c0.2,0,0.8,0.5,1,0.2
	c0.1-0.3,0.1-0.6-0.2-0.8c-0.2-0.1-0.4-0.2-0.6-0.2c-0.4,0-0.7-0.2-0.7-0.5c-0.1-0.3-0.2-0.6-0.5-0.9c-0.1-0.1-0.4-0.2-0.6-0.4
	c-0.2-0.2-0.4-0.5-0.5-0.8s-0.3-0.5-0.5-0.7c-0.2-0.1-0.4-0.2-0.6-0.3c-0.4-0.2-0.3-0.6-0.3-0.9c0.1-0.3,0.1-0.5,0-0.8
	c0-0.3-0.1-0.5-0.3-0.7c-0.1-0.2-0.2-0.5-0.2-0.8c0-0.2,0-0.6,0-0.6c0-0.4-0.1-0.7-0.3-0.8S42.4,23.9,42.3,24.1z"/>
</svg>
