<svg xmlns="http://www.w3.org/2000/svg" viewBox="0 0 75.46 110.81"><g id="b795925c-e56b-4af9-bdf7-34113c9850ab" data-name="Layer 2"><g id="f5ac8c84-4df2-42f9-a59b-d27debd2bc83" data-name="Layer 1"><path d="M44.24,49.24c.19-1.46-.61-1.4-1.09,1.58S40.63,70,38.67,77.51s-3.62,14.4-6.42,19.27a21.9,21.9,0,0,1-2.14,3.07c-.94,1.17-.13,1.17.39.64a27.76,27.76,0,0,0,4.86-6.69c4-7.37,5.24-19.25,6.44-26.65S44,50.7,44.24,49.24"/><path d="M35.81,25.23l0,0a.41.41,0,0,0,.26.14.39.39,0,0,0,.33-.09c.19-.17.39-.09.62-.08h.05a.12.12,0,0,1,.06.06c.05.06.14,0,.18-.06s0-.2,0-.26a1.55,1.55,0,0,0-1.41-.9c-.93,0-1,.39-1,.66,0,.63.09.18.33.37.08.07.17.15.27.14s.21-.14.3,0m-.43-.35s-.1,0,0-.05a.82.82,0,0,1,.35-.23l.24-.06a.91.91,0,0,1,.43.1l.14.07a.15.15,0,0,1,.1.11s0,.07,0,.07-.29-.07-.42-.08a1.71,1.71,0,0,0-.39,0l-.38.06"/><path d="M38.29,29.34a1.18,1.18,0,0,0-.67,0c-.23,0-.38-.08-.5,0s-.08.34.14.38.24-.06.36-.08a.7.7,0,0,1,.29,0,1.26,1.26,0,0,0,.27,0c.21,0,.33-.23.11-.32"/><path d="M30.46,43s0,.09,0,.13.1.18.14.27a.41.41,0,0,0,.07.11c.13.16.4.18.58.28a4.89,4.89,0,0,0,.46.19c.35.12.84,0,.64-.23a1.88,1.88,0,0,0-.95-.45,4.24,4.24,0,0,1-.59-.23c-.07,0-.28-.14-.36-.07"/><path d="M9.87,55.18l.08,0h.51a.52.52,0,0,0,.37-.12.35.35,0,0,0,.09-.38c-.13-.27-.45-.19-.63-.15h0a.87.87,0,0,0-.67.5l-.06.13.14,0a.43.43,0,0,1,.19,0"/><path d="M39.53,106.17a.8.8,0,0,0-.48-.25.26.26,0,0,0-.25.1.21.21,0,0,0,0,.25,1.32,1.32,0,0,0,.45.46.26.26,0,0,0,.17,0,.33.33,0,0,0,.15,0,.19.19,0,0,0,.11-.16.62.62,0,0,0-.15-.39Z"/><path d="M27.92,106.11h0a.48.48,0,0,0-.35.28,2.12,2.12,0,0,1-.11.21l-.09.18a.16.16,0,0,0,0,.19.42.42,0,0,0,.23.08.34.34,0,0,0,.17,0,1,1,0,0,0,.28-.32.51.51,0,0,0,.09-.24.36.36,0,0,0,0-.18.24.24,0,0,0-.24-.15"/><path d="M75.46,37.72A37.73,37.73,0,0,0,0,37.72v73.09H75.46ZM29.38,107a3.5,3.5,0,0,1-.17,1.12.53.53,0,0,1-.34.28,4.6,4.6,0,0,1-1.78.15H25.58c-.2,0-1.18.13-1.24-.14a.2.2,0,0,1,0-.11.76.76,0,0,1,.38-.43,5.09,5.09,0,0,1,.54-.22c.51-.2.69-.67,1.15-1s.67-.86,1.06-1.19a1.16,1.16,0,0,1,1.44,0,1.08,1.08,0,0,1,.38.54,3,3,0,0,1,.08.9m.5-2.77c-2.43-.07-3.3.86-2.55-.52a3.48,3.48,0,0,0,.12-1.63,6.55,6.55,0,0,1,0-3,36,36,0,0,0,.63-8.1,24.87,24.87,0,0,1,.4-5.83c.09-.57.95-8.59.7-9.83a14,14,0,0,1,.24-4.6c.07-.35,1.09-.44,2.8-3s4.24-7,4.74-9.28-.47-.57-1.39,1.35-5.06,9.79-8.75,9.54c-6.07-.4-7.1-12.52-7.17-14.09s2.1-2.11,3-2.33,1,0,.93,1.8,0,8,2.33,8.91a4.16,4.16,0,0,0,4.21-.92c2.67-2.11,6-6.09,9.5-11,3.77-5.3,6.85-14.76,7-15.22s.81.45.88,1.33.49,13.68,1.36,20.86-.21,22.1-.27,26a40.75,40.75,0,0,1-.63,7.66c-.19.33-.8.06-1,1.06-.37,1.87-4.9,5.09-8.68,7.87s-5.92,3.11-8.35,3M6.35,56.68a.5.5,0,0,1-.51.06.19.19,0,0,1-.06-.22c.1-.27.53-.54.63-.64s.38-.39.55-.53.36-.37.59-.54.61-.36.91-.54l0,0a.18.18,0,0,0,0-.1c0-.38-2.33.65-2.54.73s-.4.12-.4-.06.11-.17.17-.22a3.5,3.5,0,0,1,.53-.31c.24-.12.47-.29.72-.41a5.32,5.32,0,0,1,.78-.32c.17-.06.35-.11.51-.18s.61-.16.87-.26A3.2,3.2,0,0,1,10.27,53a.45.45,0,0,1,.5.31c.25.51.16,1.06,1,1.28a1.92,1.92,0,0,0,1.54-.16c.41-.26.79-.92.38-.94l-.57.06a2.8,2.8,0,0,1-.5,0,1.7,1.7,0,0,1-1.09-.68,3.76,3.76,0,0,0-.25-.31,2.31,2.31,0,0,0-.62-.5,6.36,6.36,0,0,0-.71-.31c-.17-.06-.57-.08-.66-.27s-.07-.17,0-.22a3.59,3.59,0,0,1,1,.15,9.09,9.09,0,0,1,1,.2,9.78,9.78,0,0,1,1.87.69c.13.06.27.1.41.15a1.28,1.28,0,0,0,.28.07.4.4,0,0,0,.28-.07,3.06,3.06,0,0,0,.21-.29.76.76,0,0,1,.23-.17c.28-.16.5-.4.76-.57a6,6,0,0,0,.83-.68,15.33,15.33,0,0,0,2.29-2.59l.31-.39A5.57,5.57,0,0,1,20.63,46c.58-.37,1.21-1.75,1.95-3.2a6.84,6.84,0,0,0,.62-.42A18,18,0,0,0,27,37.74a11,11,0,0,1,3.66-3.5,1.57,1.57,0,0,0,.93-.05,4.28,4.28,0,0,0,1.1-1.06c.45-.6,1.56-.48,2-.89h0a4.6,4.6,0,0,0,.86-1,2.4,2.4,0,0,0,.27-.66c0-.23-.17-.47-.52-1.46-.08-.26-.21-.57-.25-.73a6.83,6.83,0,0,1-.2-2.09,8.39,8.39,0,0,0-.38-1.09c-.21-.74.22-.7.25-1.95s1.23-1.59,1.81-1.82.83-.2,1.07-.9c.06-.19.1-.18.2.07.22.55,1.32.7,1.89.9.8.28.52,1.32,1,1.89.08.1.2.19.21.32a.36.36,0,0,1-.17.31c-.2.14-.61-.06-.83-.05a3.77,3.77,0,0,0-.58,0,1.61,1.61,0,0,0-1,.56,1,1,0,0,0-.16.33,2.65,2.65,0,0,0-.06.74h0v.07c0,.09,0,.18,0,.27s0,.13,0,.22c0,.36,0,.7,0,1a.43.43,0,0,1-.1.35h0a.83.83,0,0,1-.27,0,3.72,3.72,0,0,1-.47-.11c-.13,0-.15,0-.31.09a.11.11,0,0,0-.08,0s0,.1.06.1.24.15.37.2a1.44,1.44,0,0,0,.46.08c.28,0,.42-.15.68-.05a1.12,1.12,0,0,0,.36.09.41.41,0,0,0,.32-.21,3.11,3.11,0,0,0-.26-1.07c-.28-.82-.43-1.14-.36-1.44,0-.07.13,0,.21,0a.44.44,0,0,1,.51,0,.38.38,0,0,0,.55-.16c.06-.15.58.16.71.19a.51.51,0,0,1,.17.07c.1.06.53.4.45.77s-.42.66-.43,1a3,3,0,0,1-.21,1.22,4.22,4.22,0,0,0-.31,1.27c.08.69-.35,1.24-.53,1.08s.07-.22,0-.35a.11.11,0,0,0-.11-.06c-.25,0-.34.38-.4.56s-.15.36-.22.53a.42.42,0,0,1-.5.31.41.41,0,0,1-.28-.4c0-.1,0-.39-.15-.41s-.22.69-.39.84a.63.63,0,0,1-.37.14.29.29,0,0,0-.21.05.22.22,0,0,0,0,.22,2.1,2.1,0,0,0,1.15,1,1.24,1.24,0,0,0,1,.08c.11-.06.68-.9.85-.84a2.07,2.07,0,0,0,.53.18c.28,0,.47-.19.72-.27a1.17,1.17,0,0,1,.84,0l.09.23c-.18.32-.35.63-.52,1s-.22.49-.34.74c-.32.62-.64,1.23-.92,1.87A44.4,44.4,0,0,1,37,41.8c-.74,1.05-7.47,5.67-7.47,5.67-.12-.84-.37-3.09-.53-3.53a6.59,6.59,0,0,1,.24-3c.29-.26.64.1,1.24.24s.63-.29-.22-.89c-1.44-1-1.12-1.79-1.48-1.58s-.45.68-.83,3.38a7.27,7.27,0,0,1-2.17,4.6c-.61.73-1.32,1.37-1.92,2.1-.24.3-.46.6-.68.91l-.19.27A9.41,9.41,0,0,1,19,52.31a7,7,0,0,0-2.34,1,10.06,10.06,0,0,0-2,1.32,4.92,4.92,0,0,1-.77.86,3.75,3.75,0,0,1-1.12.61,5.82,5.82,0,0,1-1.5.26c-.23,0-.46,0-.69.06a1.73,1.73,0,0,0-.51,0,14,14,0,0,0-1.95.68,3.26,3.26,0,0,1-.34.22.41.41,0,0,1-.39,0,.7.7,0,0,1-.1-.08.83.83,0,0,0-.36,0c-.19,0-.48-.17-.41-.38s-.08-.24-.18-.15M32.94,25.45a2.76,2.76,0,0,1,.17-2.36,13,13,0,0,0,.66-2.45,5.54,5.54,0,0,1,2-2.54c.83-.56,1.64-.35,1.6,0A9,9,0,0,1,37,20.27c-.2.32-1.11.34-1.89.58s-.64,1.22-1,1.71a2.1,2.1,0,0,0-.56,1.91c.22,1,.58,1.75.14,2.58s.4,1.33-.14,2.33c-.69,1.3.11,1.44-.49,2.35-.76,1.17-1,.46-1.46.9a.67.67,0,0,0-.18.34.66.66,0,0,1-.72.38c-.31-.06-.26-.18-.55-.43s-.6.07-1,.11c-.67,0-.66-.17-.16-.4s.36-.6,1-.71.81-.45,1.17-.75.25-.37.33-1.2.76-.72.95-1.23.16-.87.34-1.5a2.4,2.4,0,0,0,.12-1.79m-3.68,8.44a.66.66,0,0,1,.53,0,9.18,9.18,0,0,0-3,2.55c-1.1,1.37-1.53,2.76-3.17,4.39l0,0,.51-1.14a1.78,1.78,0,0,1,.18-.44c.4-.8,1.08-2,1.55-3.08s2-2.26,2.55-2.12a1.8,1.8,0,0,0,.85-.17m14-5.4a2,2,0,0,0,.71.38,1.55,1.55,0,0,1,.71.74,2,2,0,0,0,.84,1.07c.33.16.34.21.55.52s.18.85.63,1.05c.23.11.51,0,.75.13A.76.76,0,0,1,48,33a.33.33,0,0,1,0,.14c-.15.38-.85-.16-1.06-.2a2.49,2.49,0,0,0-.77,0,1.13,1.13,0,0,1-.75-.14c-.22-.16-.34-.43-.55-.6a4,4,0,0,1-.7-.52c-.25-.31.18-.77,0-1.13a2,2,0,0,0-1-.73,1.87,1.87,0,0,1-.71-.5.22.22,0,0,1-.05-.08,1.47,1.47,0,0,1-.19-.89c.12-.72.55-.9.24-1.58-.22-.47-1-1.19-.52-1.89a4.5,4.5,0,0,0,.31-.45c0-.1.08-.36.17-.41h0c.06,0,.12,0,.16.08a.91.91,0,0,1,.12.49c0,.18,0,.35,0,.52a5,5,0,0,0,.42,1.34,2,2,0,0,1,.05,1c-.06.34-.19.73,0,1M65.29,53.61c-.4.2-.8.22-1.11.58-.12.15-.22.32-.33.47a2.68,2.68,0,0,1-2,1,6.06,6.06,0,0,1-2.62-.79c-.75-.31-1.43-.58-2.16-.94-1.57-.76-2.34-.7-2.66-1.52-.74-1.87.5-4.76,1.13-4.86s2.35,2.33,3.92,3.92a21,21,0,0,0,2.37,2.19.73.73,0,0,0,.87.07c.15-.11.32-.19.47-.3a2.57,2.57,0,0,1,.53-.25,3,3,0,0,1,1-.28l.78,0c.15,0,.47-.11.61,0a.18.18,0,0,1,.07.19.19.19,0,0,1,0,.07c-.11.28-.55.4-.79.53m.79,2.47a.85.85,0,0,0-.31.09,2.1,2.1,0,0,1-.5.09.62.62,0,0,1-.4,0,.32.32,0,0,1-.14-.3c.08-.26.4-.23.59-.21a.87.87,0,0,1,.76.38M59.37,95.85c-.49,1.17-1,.79-1.55.11s.82-1.4.36-2.73-1.89-1-2-2.72c0-.5-.16-4.55-.18-5.25s-.73-.64-.74,0S55,92,55,92.3c0,1-3.1-.92-4-1.92-1.53-1.69-1.67-2.45-1.23-3.59s1.29-2.68.38-4.81c-.61-1.43-1.23-4.43.17-6.55s.22-2.47.94-4,1.28-2.6.47-4.12-.1-2,.77-5.27,1.51-5.53,2-5.93.57.31.57,1.78c0,1.22.13,18.58.13,19.41s.66.65.65,0,.41-19.57.41-20.32c0-1.15,3.06.41,3.13.71.24,1,1.41,10,1.19,13.68s-1.35,9.43-1.35,11.81.6,11.5.12,12.67M53.22,52.43a7.11,7.11,0,0,1-.11,2.91c-.5,2-2.12,8.2-2.28,8.7-.32,1-.49-.15-.61-1.4s-.9-11.34-1.32-15.55a59.94,59.94,0,0,1-.3-7.5c0-.42,1.9,2.7,2.93,4,.44.54,2.69,2.64,2.73,2.73a.46.46,0,0,1,.05.34c0,.06-.11.13-.14.17a5.55,5.55,0,0,0-.29.48,6.52,6.52,0,0,0-.67,2.08,11.35,11.35,0,0,0,0,3.08m2.34-6.37c-.4-.41-2.83-3.15-4.1-4.91s-5.33-7.1-5.06-7.43.51.27,1,.29a2.4,2.4,0,0,1,1.06.25,3.81,3.81,0,0,1,.77.65,10.75,10.75,0,0,1,.76,1c.27.4.62,1.49.79,1.82l.46.93c.44.83.85,1.41,1.3,2.18a53.71,53.71,0,0,0,3.45,5c.57.71,0,.59-.43.19M26.68,52c.38.9.87-.79.78-1.89-.05-.57,1-.54,2-1.34s7.45-5.54,8.14-6.54c2.13-3.08,5.55-9.41,6-9.39A3.35,3.35,0,0,1,45.13,34c.2.35-1.72,5.93-5.8,11.7S29.73,56,27.66,55.52c-1.81-.41-2.6-3.32-2.07-5.69a9,9,0,0,1,2.55-4.15s.77,2-.18,2.83c-.73.61-2.13,1.51-1.28,3.53m-.75,4.15c1.21,1.9,4.2,1.64,8.88-3a39.11,39.11,0,0,0,7.38-10.37,58.74,58.74,0,0,0,3.45-7.45c.09-.26.58-.14.48.29a56.66,56.66,0,0,1-4.94,11.54,60.24,60.24,0,0,1-8.45,11.13c-3.4,3.41-5.3,4.08-6.4,3.54s-1.82-2.69-2-5.45c-.12-2.2,0-3.12.19-3.29.47-.41.43,1.6,1.38,3.07M42.26,22.72c-.12,0-.24-.12-.28-.2-.37-.65-.73-.69-1-1.29-.22-.43-.51-.53-1-.54A2,2,0,0,1,38,19.83,5.4,5.4,0,0,1,38,18c0-.58,1.53-.41,2.14.1a3.9,3.9,0,0,1,1.6,2.14c.13.35.2.71.32,1.07s.35.5.37.92c0,.25,0,.45-.12.47M40.1,24.84a.1.1,0,0,1-.12.05l-.31-.07a1.87,1.87,0,0,0-.41,0c-.13,0-.51.1-.52,0s.18-.18.22-.2a.62.62,0,0,1,.22-.1.89.89,0,0,1,.43,0,1.69,1.69,0,0,1,.24.08,1.24,1.24,0,0,1,.2.1s.05,0,.05.05v.05m7.71,76.86c0,.34-.12.67-1-.46a4.26,4.26,0,0,1-1-3.57c.26-1.42.92-1.8,1.35-2.77s.75-.73.68-.13-.1,2.44-.13,3.69.07,2.71.08,3.24m-5.49,6.67a.31.31,0,0,1-.27.16,2.06,2.06,0,0,1-.43,0l-.5,0a.5.5,0,0,1-.17,0l-.13,0a.49.49,0,0,0-.31,0,1.27,1.27,0,0,1-.67.08c-.21,0-.4-.1-.61-.12a5.41,5.41,0,0,0-1,.1,4.92,4.92,0,0,1-1.38-.1c-.25,0-.34-.26-.36-.49a2.62,2.62,0,0,1,0-.79,2.27,2.27,0,0,0,0-1.29,1.42,1.42,0,0,1-.11-.35,1.26,1.26,0,0,1,0-.28c.09-.4,0-.79.33-1.11a4,4,0,0,1,.94-.65,20.31,20.31,0,0,0,2.7-2.12c.18-.15.42-.61.52-.28s-.21.67-.27.88c-.19.68-.42,1.46-.63,2.14a2,2,0,0,0,0,1.69c.22.39.87.91,1.11,1.28a2.69,2.69,0,0,0,.45.37,2.75,2.75,0,0,1,.55.58.35.35,0,0,1,.09.3m3.07-1.19a.31.31,0,0,1-.21,0,1.2,1.2,0,0,1-.49-1,41.52,41.52,0,0,1-.32-5.57c0-.26.21-.45.37-.39.35.1.52,1,1,1.62s1.21,1.48,1.37,1.69a1.21,1.21,0,0,1,.2.3c.32.65-.1,1-.43,1.48s-.9,1.18-1.36,1.77a.32.32,0,0,1-.14.12M48,108.4a.35.35,0,0,1-.25,0c-.42,0-1.27.18-1.32-.36,0-.31.31-1.18.69-1.14a.46.46,0,0,1,.33.29,2.27,2.27,0,0,0,.21.41c.09.12.24.21.34.33a.33.33,0,0,1,0,.43m25.61.6H50.47a1.49,1.49,0,0,0,.06-.66.77.77,0,0,0-.51-.58,1.67,1.67,0,0,0-.41-.11h0a.1.1,0,0,0,0-.05l0-.07a3.21,3.21,0,0,0-.78-.78l0-.1a2.09,2.09,0,0,0-.15-.3l-.08-.12a.46.46,0,0,1-.07-.1,6.62,6.62,0,0,0,.94-3.95c0-.92,0-6.51,0-7.88,0-.2,0-.41,0-.62a8.08,8.08,0,0,1,.16-2.44.65.65,0,0,0,.09.11,9.48,9.48,0,0,0,1.1.91c.16.12.32.24.47.37a13.67,13.67,0,0,0,2.91,1.94,3.4,3.4,0,0,0,1.63.32v.23a5.43,5.43,0,0,0,.06,1c.1.53.66,1.08,1.89,1.83l.21.13.4.24a.88.88,0,0,0,1.14-.11c0-.06.1-.1.15-.15a4.23,4.23,0,0,0,.44-.49l.13-.17a5.31,5.31,0,0,0,.73-1.17,6.24,6.24,0,0,0,.29-2.65c0-.26,0-.51,0-.75,0-.64,0-1.21,0-1.84,0-.36,0-.73,0-1.11,0-.65,0-1.31,0-2v-.94c0-.2,0-.4,0-.6s0-.53,0-.8,0-.68,0-1.16c-.05-1.25-.13-3.34-.06-4,0-.42.16-1.19.28-2v0c.12-.78.24-1.6.32-2.27,0-.26.07-.53.1-.78l0-.08A28.16,28.16,0,0,0,62,71.51l.12-11.41c0-.49,0-1,0-1.49a5.09,5.09,0,0,1,0-.55l.12.08a4.81,4.81,0,0,0,2.14.4l.36,0a10.72,10.72,0,0,1,1.68.21l.26.1.25.09.37.14a2.11,2.11,0,0,0,.71.26,1.18,1.18,0,0,0,.94-.29l.06-.06L69,59h0a1.35,1.35,0,0,0,.48,0,1.09,1.09,0,0,0,.59-.47.15.15,0,0,0,0-.06l.07,0a1.38,1.38,0,0,0,.39-.26,1,1,0,0,0,.26-.61s0-.06,0-.08l.11-.09a1.13,1.13,0,0,0,.48-.66,1.07,1.07,0,0,0-.26-.93,2.79,2.79,0,0,0-.44-.42l-.1-.08L70.41,55l-.15-.14a3.32,3.32,0,0,0-.36-.26l-.42-.27-.18-.11a2.54,2.54,0,0,0-.47-.27l-.25-.12a4,4,0,0,0-1-.34h-.06a1.25,1.25,0,0,0,.37-1,1.13,1.13,0,0,0-.24-.63,1,1,0,0,0-.81-.28l-.66,0h-.12a1.37,1.37,0,0,0-.29,0,6.87,6.87,0,0,1-1,0h-.27a4.89,4.89,0,0,0-.75.05A3.59,3.59,0,0,0,63,52l-.34.16a1.36,1.36,0,0,1-.41.13c-.07,0-.15,0-.35-.18a6.57,6.57,0,0,1-.61-.68.33.33,0,0,1-.09-.2,1.58,1.58,0,0,0-.15-.54,8.55,8.55,0,0,0-.54-.92l0,0-.13-.21c-.15-.25-.32-.49-.47-.72s-.3-.44-.44-.67c0,0-1.45-2-1.83-2.42h0c-.21-.31-1-1.31-1.13-1.53a39.62,39.62,0,0,1-2.74-4.11l-.27-.44a22,22,0,0,1-1.63-3l0-.12A6.58,6.58,0,0,0,49,32.92a1.56,1.56,0,0,0,0-.74,1.25,1.25,0,0,0-.32-.54l-.22-.17-.23-.14a1.17,1.17,0,0,0-.27-.14l-.06,0,0,0,0,0A1.28,1.28,0,0,0,47.23,30h0a4.7,4.7,0,0,1-.55-.33l-.23-.17-.1-.08a.43.43,0,0,1,0-.07,2.71,2.71,0,0,0-.88-.82l-.06,0a1.37,1.37,0,0,1-.46-.6,1.19,1.19,0,0,1-.11-.5,4,4,0,0,0-.05-.44l-.17-.55a2.24,2.24,0,0,0-.11-.29.2.2,0,0,1,0-.08.63.63,0,0,1,0-.16v-.09a3.3,3.3,0,0,1,0-.62,3.34,3.34,0,0,0,0-1.14,11.82,11.82,0,0,0-.74-2.2c-.12-.27-.23-.55-.34-.84s-.15-.46-.23-.72a9.4,9.4,0,0,0-.34-1,5.1,5.1,0,0,0-1.44-1.95,4.08,4.08,0,0,0-3.06-1,1.67,1.67,0,0,0-.61.19,2.46,2.46,0,0,0-1.57-.13,5.43,5.43,0,0,0-3.42,3.37l-.13.28a6.65,6.65,0,0,0-.33,1.08,6.09,6.09,0,0,1-.35,1.11,5,5,0,0,0-.42,2.92,4.36,4.36,0,0,1-.16,2.52,4.25,4.25,0,0,1-.51.81l-.28.39a2.58,2.58,0,0,0-.32.81,2.75,2.75,0,0,1-.1.34,3.43,3.43,0,0,1-.26.27l-.09.07-.21.16h-.1a.62.62,0,0,0-.63.25l-.12.13a2.5,2.5,0,0,0-.22.24,1.24,1.24,0,0,1-.23.23,1.29,1.29,0,0,1-.35.2l-.16.08a1.55,1.55,0,0,0-1,1.42l-.23.2-.15.12a1.32,1.32,0,0,0-.21.23s0,0,0,0a4.2,4.2,0,0,0-.89,1,1.19,1.19,0,0,1-.15.18l-.21.28a2.68,2.68,0,0,0-.18.33,1.09,1.09,0,0,1-.08.15l-.07.13a2.83,2.83,0,0,0-.29.52c-.06.14-.11.28-.16.43s-.11.29-.16.41l-.2.4a3.77,3.77,0,0,1-.22.49c-.21.34-.41.69-.64,1.11l-.15.25a2.73,2.73,0,0,0-.23.38l-.05.06a1.53,1.53,0,0,0-.13.16l-.23.35c-.09.15-.19.31-.3.46l-.17.3c-.29.45-.57.88-.82,1.3l-.39.71-.14.3a2.89,2.89,0,0,0-.19.35,2.15,2.15,0,0,1-.14.26l0,0-.18.33a1.36,1.36,0,0,1-.1.21c-.05.1-.1.2-.14.3a2.53,2.53,0,0,1-.76.83,16.48,16.48,0,0,0-2.92,3.4,3.67,3.67,0,0,1-.67.78,2.27,2.27,0,0,1-.28.18,3.25,3.25,0,0,0-.52.38l-.14.13-.55.54c-.33-.14-1.15-.4-1.31-.45a3.72,3.72,0,0,0-.92-.25l-.4,0-.54-.08c-.66-.1-1-.19-1.2-.23A1.21,1.21,0,0,0,8.7,50a1.08,1.08,0,0,0-.63.44,1.15,1.15,0,0,0,0,1.21,1.87,1.87,0,0,0,.3.41l-.19.06-.7.29-.64.26h0a9.32,9.32,0,0,0-1.77,1l-.12.08a2.94,2.94,0,0,0-.41.34,1.35,1.35,0,0,0-.37,1.12.81.81,0,0,0,.45.6l.2.08a2,2,0,0,0-.36.61,1.06,1.06,0,0,0,.68,1.28,1.09,1.09,0,0,0,.26,0A1.09,1.09,0,0,0,6,58.5a1,1,0,0,0,.59,0h0l.06,0,0,0a1.61,1.61,0,0,0,1.31,0,3,3,0,0,0,.48-.27l.25-.14c.08,0,.17-.06.27-.1A2.45,2.45,0,0,0,9.35,58a1.64,1.64,0,0,1,.43-.13c.13,0,.27,0,.42-.06a4.76,4.76,0,0,0,.77-.13,3.52,3.52,0,0,1,.68-.08,4.6,4.6,0,0,0,.79-.08,7.75,7.75,0,0,0,1.39-.5A3.94,3.94,0,0,0,15,56.24l.18-.18.18-.18a6.83,6.83,0,0,1,2.42-1.32l.13,0c0,6,1.8,13.33,5.35,16.2a5.42,5.42,0,0,0,4,1.28,7.09,7.09,0,0,0,0,2.83c0,.14.05.28.08.43l.06.33c.13.75-.49,7.9-.58,8.52,0,.17-.07.41-.12.7a19.67,19.67,0,0,0-.47,3.69,18.82,18.82,0,0,0,.18,2.4A38.5,38.5,0,0,1,26.18,97c0,.27-.09.57-.14.86v0a18.47,18.47,0,0,0-.37,2.89,7.14,7.14,0,0,0,.19,1.29,5.17,5.17,0,0,1,.13.73,4.68,4.68,0,0,1-.21,1.08,3.62,3.62,0,0,0-.13.59,2,2,0,0,0,.05.49s0,.09,0,.11a1.24,1.24,0,0,1-.47.62c-.11.1-.23.18-.35.27s-.38.29-.57.46a2.71,2.71,0,0,0-.29.32,1.32,1.32,0,0,1-.29.29l-.26.12a2.61,2.61,0,0,0-.62.34,1.41,1.41,0,0,0-.53.74.58.58,0,0,0-.49.72h-20V37.72a35.92,35.92,0,0,1,71.83,0h0ZM67.53,56a.27.27,0,0,1,.08-.07,2.69,2.69,0,0,1,.29-.16c.14-.07,0-.21,0-.32a.28.28,0,0,1,.06-.18.6.6,0,0,1,.28-.12,1,1,0,0,1,.21.08,3.91,3.91,0,0,1,.65.4c.26.17.61.28.74.59a.35.35,0,0,1,0,.14.32.32,0,0,1-.1.28c-.07.07-.18.09-.24.17s0,.24,0,.36-.17.14-.27.17-.33-.05-.46,0-.2.27-.31.39-.32.08-.46.15a.83.83,0,0,1-.58.07c-.09,0-.23-.13-.32-.17s-.28-.08-.42-.14a1.67,1.67,0,0,1-.28-.18.33.33,0,0,1-.11-.41c.07-.15.32-.11.45-.1l.2,0c.09,0,.09-.13.1-.21a.59.59,0,0,1,0-.27c0-.08.15-.08.24-.1l.12,0c.12-.07,0-.25,0-.34"/><path d="M36.48,28.68c-.07,0-.15,0-.15.06a.09.09,0,0,0,0,.06s.06.08.08.08a2.53,2.53,0,0,0,.78,0h.48c.2,0,.4,0,.59,0a1.76,1.76,0,0,0,.4,0,2.46,2.46,0,0,0,.37,0s.07-.05.09-.08,0,0,0-.06-.08,0-.15-.06a.91.91,0,0,0-.26-.05.49.49,0,0,1-.2-.11.83.83,0,0,0-.38-.1c-.12,0-.24.08-.36.09h-.14c-.13,0-.24-.11-.38-.11a.7.7,0,0,0-.37.11.47.47,0,0,1-.21.11.65.65,0,0,0-.25.05"/></g></g></svg>